<?xml version="1.0" encoding="UTF-8"?>
<!DOCTYPE svg PUBLIC "-//W3C//DTD SVG 1.1//EN" "http://www.w3.org/Graphics/SVG/1.1/DTD/svg11.dtd">
<svg xmlns="http://www.w3.org/2000/svg" version="1.1" width="768px" height="768px" style="shape-rendering:geometricPrecision; text-rendering:geometricPrecision; image-rendering:optimizeQuality; fill-rule:evenodd; clip-rule:evenodd" xmlns:xlink="http://www.w3.org/1999/xlink">
<g><path style="opacity:0.994" fill="#000000" d="M 241.5,35.5 C 270.502,35.3334 299.502,35.5 328.5,36C 333.333,38.1667 336.833,41.6667 339,46.5C 339.667,71.1667 339.667,95.8333 339,120.5C 334.072,130.642 325.905,134.642 314.5,132.5C 314.5,146.5 314.5,160.5 314.5,174.5C 360.501,175.764 406.501,175.764 452.5,174.5C 452.5,160.5 452.5,146.5 452.5,132.5C 441.095,134.642 432.928,130.642 428,120.5C 427.333,95.8333 427.333,71.1667 428,46.5C 430.167,41.6667 433.667,38.1667 438.5,36C 467.5,35.3333 496.5,35.3333 525.5,36C 530.333,38.1667 533.833,41.6667 536,46.5C 536.667,71.5 536.667,96.5 536,121.5C 530.553,130.765 522.386,134.431 511.5,132.5C 511.5,146.5 511.5,160.5 511.5,174.5C 540.169,174.333 568.835,174.5 597.5,175C 619.475,177.415 634.642,188.915 643,209.5C 644.851,214.992 645.851,220.658 646,226.5C 646.983,362.518 646.65,498.518 645,634.5C 638.547,657.285 623.714,671.119 600.5,676C 456.833,676.667 313.167,676.667 169.5,676C 142.879,670.45 127.379,654.283 123,627.5C 122.333,492.833 122.333,358.167 123,223.5C 127.609,195.558 143.776,179.391 171.5,175C 199.498,174.5 227.498,174.333 255.5,174.5C 255.5,160.5 255.5,146.5 255.5,132.5C 244.614,134.431 236.447,130.765 231,121.5C 230.333,96.5 230.333,71.5 231,46.5C 233.357,41.6455 236.857,37.9788 241.5,35.5 Z"/></g>
<g><path style="opacity:1" fill="#fdfdfd" d="M 241.5,266.5 C 271.502,266.333 301.502,266.5 331.5,267C 339.687,268.185 345.187,272.685 348,280.5C 348.667,334.167 348.667,387.833 348,441.5C 346.815,449.687 342.315,455.187 334.5,458C 303.167,458.667 271.833,458.667 240.5,458C 234.912,455.414 231.079,451.247 229,445.5C 228.333,389.833 228.333,334.167 229,278.5C 231.744,272.921 235.911,268.921 241.5,266.5 Z"/></g>
<g><path style="opacity:1" fill="#fdfdfd" d="M 432.5,266.5 C 462.835,266.333 493.168,266.5 523.5,267C 530.331,268.33 535.164,272.163 538,278.5C 538.667,334.167 538.667,389.833 538,445.5C 535.859,451.641 531.693,455.807 525.5,458C 494.167,458.667 462.833,458.667 431.5,458C 424.291,454.793 420.125,449.293 419,441.5C 418.333,387.833 418.333,334.167 419,280.5C 421.687,273.981 426.187,269.314 432.5,266.5 Z"/></g>
<g><path style="opacity:1" fill="#000000" d="M 262.5,301.5 C 279.5,301.5 296.5,301.5 313.5,301.5C 313.5,342.5 313.5,383.5 313.5,424.5C 296.5,424.5 279.5,424.5 262.5,424.5C 262.5,383.5 262.5,342.5 262.5,301.5 Z"/></g>
<g><path style="opacity:1" fill="#000000" d="M 504.5,301.5 C 504.5,342.5 504.5,383.5 504.5,424.5C 487.5,424.5 470.5,424.5 453.5,424.5C 453.5,383.5 453.5,342.5 453.5,301.5C 470.5,301.5 487.5,301.5 504.5,301.5 Z"/></g>
<g><path style="opacity:1" fill="#b5b5b5" d="M 262.5,301.5 C 279.659,300.503 296.992,300.17 314.5,300.5C 314.832,342.003 314.499,383.337 313.5,424.5C 313.5,383.5 313.5,342.5 313.5,301.5C 296.5,301.5 279.5,301.5 262.5,301.5 Z"/></g>
<g><path style="opacity:1" fill="#b5b5b5" d="M 504.5,301.5 C 487.5,301.5 470.5,301.5 453.5,301.5C 453.5,342.5 453.5,383.5 453.5,424.5C 452.501,383.337 452.168,342.003 452.5,300.5C 470.008,300.17 487.341,300.503 504.5,301.5 Z"/></g>
<g><path style="opacity:1" fill="#fdfdfd" d="M 326.5,550.5 C 338.167,550.5 349.833,550.5 361.5,550.5C 361.5,555.5 361.5,560.5 361.5,565.5C 378.5,565.5 395.5,565.5 412.5,565.5C 412.5,560.5 412.5,555.5 412.5,550.5C 423.833,550.5 435.167,550.5 446.5,550.5C 446.667,562.505 446.5,574.505 446,586.5C 443.859,592.641 439.693,596.807 433.5,599C 402.167,599.667 370.833,599.667 339.5,599C 332.291,595.793 328.125,590.293 327,582.5C 326.5,571.839 326.333,561.172 326.5,550.5 Z"/></g>
</svg>
