<svg width="108" height="108" viewBox="0 0 109 110" fill="none" xmlns="http://www.w3.org/2000/svg">
<path fill-rule="evenodd" clip-rule="evenodd" d="M90.4737 16.4286H26.0311C24.201 16.4286 22.7369 17.4991 22.7369 18.8373C22.7369 20.1598 24.201 21.2461 26.0311 21.2461H90.4737C92.3039 21.2461 93.7895 20.1598 93.7895 18.8373C93.7895 17.4991 92.3039 16.4286 90.4737 16.4286ZM90.4737 30.8811H26.0311C24.201 30.8811 22.7369 31.9674 22.7369 33.2898C22.7369 34.628 24.201 35.7143 26.0311 35.7143H90.4737C92.3039 35.7143 93.7895 34.628 93.7895 33.2898C93.7895 31.9674 92.3039 30.8811 90.4737 30.8811ZM26.0311 45.3493H90.4737C92.3039 45.3493 93.7895 46.4356 93.7895 47.758C93.7895 49.0962 92.3039 50.1668 90.4737 50.1668H26.0311C24.201 50.1668 22.7369 49.0962 22.7369 47.758C22.7369 46.4356 24.201 45.3493 26.0311 45.3493ZM90.4737 59.8175H26.0311C24.201 59.8175 22.7369 60.8881 22.7369 62.2263C22.7369 63.5487 24.201 64.635 26.0311 64.635H90.4737C92.3039 64.635 93.7895 63.5487 93.7895 62.2263C93.7895 60.8881 92.3039 59.8175 90.4737 59.8175ZM26.0311 74.2857H90.4737C92.3039 74.2857 93.7895 75.3563 93.7895 76.6945C93.7895 78.0169 92.3039 79.1032 90.4737 79.1032H26.0311C24.201 79.1032 22.7369 78.0169 22.7369 76.6945C22.7369 75.3563 24.201 74.2857 26.0311 74.2857ZM90.4737 88.7382H26.0311C24.201 88.7382 22.7369 89.8245 22.7369 91.147C22.7369 92.4851 24.201 93.5714 26.0311 93.5714H90.4737C92.3039 93.5714 93.7895 92.4851 93.7895 91.147C93.7895 89.8245 92.3039 88.7382 90.4737 88.7382Z" fill="black"/>
<path fill-rule="evenodd" clip-rule="evenodd" d="M1.42105 8.71429H6.56526C7.36105 8.71429 7.98632 9.39315 7.98632 10.2572V11.9543C7.98632 12.8029 7.36105 13.4972 6.56526 13.4972H1.42105C0.625263 13.4972 0 12.8029 0 11.9543V10.2572C0 9.39315 0.625263 8.71429 1.42105 8.71429ZM1.42105 18.2954H6.56526C7.36105 18.2954 7.98632 18.9743 7.98632 19.8383V21.5354C7.98632 22.384 7.36105 23.0783 6.56526 23.0783H1.42105C0.625263 23.0783 0 22.384 0 21.5354V19.8383C0 18.9743 0.625263 18.2954 1.42105 18.2954ZM1.42105 27.8766H6.56526C7.36105 27.8766 7.98632 28.5554 7.98632 29.4194V31.1166C7.98632 31.9652 7.36105 32.6594 6.56526 32.6594H1.42105C0.625263 32.6594 0 31.9652 0 31.1166V29.4194C0 28.5554 0.625263 27.8766 1.42105 27.8766ZM1.42105 37.4577H6.56526C7.36105 37.4577 7.98632 38.1366 7.98632 39.0006V40.6977C7.98632 41.5463 7.36105 42.2406 6.56526 42.2406H1.42105C0.625263 42.2406 0 41.5463 0 40.6977V39.0006C0 38.1366 0.625263 37.4577 1.42105 37.4577ZM1.42105 47.0389H6.56526C7.36105 47.0389 7.98632 47.7177 7.98632 48.5817V50.2789C7.98632 51.1274 7.36105 51.8217 6.56526 51.8217H1.42105C0.625263 51.8217 0 51.1274 0 50.2789V48.5817C0 47.7177 0.625263 47.0389 1.42105 47.0389ZM1.42105 56.62H6.56526C7.36105 56.62 7.98632 57.3143 7.98632 58.1629V59.86C7.98632 60.724 7.36105 61.4029 6.56526 61.4029H1.42105C0.625263 61.4029 0 60.724 0 59.86V58.1629C0 57.3143 0.625263 56.62 1.42105 56.62ZM1.42105 66.2012H6.56526C7.36105 66.2012 7.98632 66.8954 7.98632 67.744V69.4412C7.98632 70.3052 7.36105 70.984 6.56526 70.984H1.42105C0.625263 70.984 0 70.3052 0 69.4412V67.744C0 66.8954 0.625263 66.2012 1.42105 66.2012ZM1.42105 75.7823H6.56526C7.36105 75.7823 7.98632 76.4766 7.98632 77.3252V79.0223C7.98632 79.8863 7.36105 80.5652 6.56526 80.5652H1.42105C0.625263 80.5652 0 79.8863 0 79.0223V77.3252C0 76.4766 0.625263 75.7823 1.42105 75.7823ZM1.42105 85.3634H6.56526C7.36105 85.3634 7.98632 86.0577 7.98632 86.9063V88.6034C7.98632 89.4674 7.36105 90.1463 6.56526 90.1463H1.42105C0.625263 90.1463 0 89.4674 0 88.6034V86.9063C0 86.0577 0.625263 85.3634 1.42105 85.3634ZM1.42105 94.9446H6.56526C7.36105 94.9446 7.98632 95.6389 7.98632 96.4874V98.2C7.98632 99.0486 7.36105 99.7429 6.56526 99.7429H1.42105C0.625263 99.7429 0 99.0486 0 98.2V96.4874C0 95.6389 0.625263 94.9446 1.42105 94.9446Z" fill="black"/>
<path d="M99.5342 1H16.9922C12.3166 1 8.52632 3.97558 8.52632 7.64615V102.354C8.52632 106.024 12.3166 109 16.9922 109H99.5342C104.21 109 108 106.024 108 102.354V7.64615C108 3.97558 104.21 1 99.5342 1Z" stroke="black" stroke-width="2"/>
</svg>
