<svg width="100" height="100" viewBox="0 0 100 100" fill="none" xmlns="http://www.w3.org/2000/svg">
<path d="M77.0797 89L66.7597 62.48H32.7997L22.5997 89H11.6797L45.1597 2.96H54.8797L88.2397 89H77.0797ZM53.9197 26.96C53.6797 26.32 53.2797 25.16 52.7197 23.48C52.1597 21.8 51.5997 20.08 51.0397 18.32C50.5597 16.48 50.1597 15.08 49.8397 14.12C49.4397 15.72 48.9997 17.36 48.5197 19.04C48.1197 20.64 47.6797 22.12 47.1997 23.48C46.7997 24.84 46.4397 26 46.1197 26.96L36.3997 52.88H63.5197L53.9197 26.96Z" fill="black"/>
<path d="M4.00001 94.9489L97 94.9489" stroke="black" stroke-width="9"/>
</svg>
